<svg width="116" height="28" viewBox="0 0 116 28" fill="none" xmlns="http://www.w3.org/2000/svg">
<g clip-path="url(#clip0_15_459)">
<path fill-rule="evenodd" clip-rule="evenodd" d="M14.5713 15.7138H6C4.4087 15.7138 2.88258 16.346 1.75736 17.4712C0.632145 18.5964 0 20.1225 0 21.7138V23.4276C-6.13331e-08 24.1097 0.27087 24.7638 0.753046 25.2462C1.23522 25.7286 1.88922 25.9997 2.57127 26H18C18.6819 26 19.336 25.7291 19.8182 25.2469C20.3004 24.7647 20.5713 24.1107 20.5713 23.4287V21.7138C20.5713 20.1225 19.9391 18.5964 18.8139 17.4712C17.6887 16.346 16.1626 15.7138 14.5713 15.7138ZM6 17.4287H14.5713C15.708 17.4287 16.7982 17.8803 17.6021 18.6841C18.4059 19.4879 18.8574 20.5781 18.8574 21.7149V23.4287C18.8576 23.5414 18.8355 23.6529 18.7925 23.757C18.7494 23.8611 18.6863 23.9557 18.6066 24.0354C18.527 24.115 18.4324 24.1782 18.3283 24.2212C18.2242 24.2642 18.1126 24.2863 18 24.2862H2.57127C2.34386 24.2862 2.12576 24.1958 1.96495 24.035C1.80415 23.8742 1.71382 23.6561 1.71382 23.4287V21.7138C1.71411 20.5772 2.16582 19.4873 2.9696 18.6837C3.77339 17.8802 4.86342 17.4287 6 17.4287ZM10.2862 2C9.09949 2 7.93946 2.35189 6.95276 3.01118C5.96607 3.67047 5.19702 4.60754 4.7429 5.7039C4.28877 6.80026 4.16996 8.00666 4.40147 9.17054C4.63298 10.3344 5.20443 11.4035 6.04355 12.2426C6.88266 13.0818 7.95175 13.6532 9.11564 13.8847C10.2795 14.1162 11.4859 13.9974 12.5823 13.5433C13.6786 13.0892 14.6157 12.3201 15.275 11.3334C15.9343 10.3467 16.2862 9.18669 16.2862 8C16.2862 6.4087 15.654 4.88258 14.5288 3.75736C13.4036 2.63214 11.8775 2 10.2862 2ZM10.2862 3.71382C11.1339 3.71382 11.9626 3.9652 12.6675 4.43617C13.3723 4.90714 13.9217 5.57655 14.2461 6.35975C14.5705 7.14295 14.6554 8.00476 14.49 8.83619C14.3246 9.66763 13.9164 10.4314 13.317 11.0308C12.7175 11.6302 11.9538 12.0384 11.1224 12.2038C10.2909 12.3692 9.42912 12.2843 8.64592 11.9599C7.86273 11.6355 7.19332 11.0861 6.72235 10.3813C6.25138 9.67642 6 8.84773 6 8C6.00029 6.86332 6.45197 5.77328 7.25572 4.96953C8.05947 4.16578 9.1495 3.71411 10.2862 3.71382Z" fill="#005CFF"/>
</g>
<path d="M33.9613 12.112C33.028 12.112 32.216 11.9067 31.5253 11.496C30.844 11.0853 30.3166 10.502 29.9433 9.746C29.57 8.99 29.3833 8.09867 29.3833 7.072C29.3833 6.036 29.5653 5.14 29.9293 4.384C30.3026 3.61867 30.8346 3.03533 31.5253 2.634C32.216 2.22333 33.028 2.018 33.9613 2.018C34.904 2.018 35.7206 2.22333 36.4113 2.634C37.102 3.03533 37.6293 3.61867 37.9933 4.384C38.3666 5.14 38.5533 6.03133 38.5533 7.058C38.5533 8.08467 38.3666 8.98067 37.9933 9.746C37.6293 10.502 37.102 11.0853 36.4113 11.496C35.7206 11.9067 34.904 12.112 33.9613 12.112ZM33.9613 10.936C34.9506 10.936 35.7206 10.6 36.2713 9.928C36.822 9.256 37.0973 8.29933 37.0973 7.058C37.0973 5.81667 36.822 4.86467 36.2713 4.202C35.73 3.53 34.96 3.194 33.9613 3.194C32.9813 3.194 32.216 3.53 31.6653 4.202C31.124 4.86467 30.8533 5.81667 30.8533 7.058C30.8533 8.29933 31.124 9.256 31.6653 9.928C32.216 10.6 32.9813 10.936 33.9613 10.936ZM40.3521 12V2.13H41.7661V12H40.3521ZM46.5987 5C47.5134 5 48.19 5.22867 48.6287 5.686C49.0767 6.14333 49.3007 6.83867 49.3007 7.772V12H47.9427V10.866C47.7654 11.2673 47.4994 11.5753 47.1447 11.79C46.7994 11.9953 46.3934 12.098 45.9267 12.098C45.4787 12.098 45.068 12.0093 44.6947 11.832C44.3214 11.6453 44.0274 11.3887 43.8127 11.062C43.6074 10.7353 43.5047 10.3713 43.5047 9.97C43.5047 9.47533 43.6307 9.088 43.8827 8.808C44.144 8.51867 44.5687 8.31333 45.1567 8.192C45.754 8.07067 46.5707 8.01 47.6067 8.01H47.9287V7.604C47.9287 7.08133 47.8167 6.70333 47.5927 6.47C47.378 6.23667 47.0234 6.12 46.5287 6.12C45.754 6.12 44.9794 6.358 44.2047 6.834L43.7847 5.84C44.1487 5.588 44.5874 5.38733 45.1007 5.238C45.6234 5.07933 46.1227 5 46.5987 5ZM46.1787 11.048C46.692 11.048 47.112 10.8753 47.4387 10.53C47.7654 10.1753 47.9287 9.72267 47.9287 9.172V8.808H47.6767C46.9487 8.808 46.3887 8.84067 45.9967 8.906C45.6047 8.97133 45.3247 9.08333 45.1567 9.242C44.9887 9.39133 44.9047 9.61067 44.9047 9.9C44.9047 10.2267 45.0214 10.502 45.2547 10.726C45.4974 10.9407 45.8054 11.048 46.1787 11.048ZM47.0747 4.272H46.1507L47.5367 1.43H49.0487L47.0747 4.272ZM52.7469 10.334V11.468C52.7469 11.9067 52.6722 12.3033 52.5229 12.658C52.3829 13.022 52.1402 13.3767 51.7949 13.722L51.1789 13.232C51.5709 12.812 51.7949 12.4013 51.8509 12H51.0809V10.334H52.7469ZM36.4673 16.13H37.8253V26H36.7193L31.0773 18.552V26H29.7193V16.13H30.8113L36.4673 23.592V16.13ZM42.9236 26.098C42.2516 26.098 41.6589 25.9533 41.1456 25.664C40.6416 25.3747 40.2496 24.964 39.9696 24.432C39.6989 23.8907 39.5636 23.2653 39.5636 22.556C39.5636 21.8373 39.6989 21.212 39.9696 20.68C40.2496 20.1387 40.6416 19.7233 41.1456 19.434C41.6589 19.1447 42.2516 19 42.9236 19C43.5956 19 44.1836 19.1447 44.6876 19.434C45.2009 19.7233 45.5929 20.1387 45.8636 20.68C46.1436 21.212 46.2836 21.8373 46.2836 22.556C46.2836 23.2653 46.1436 23.8907 45.8636 24.432C45.5929 24.964 45.2009 25.3747 44.6876 25.664C44.1836 25.9533 43.5956 26.098 42.9236 26.098ZM42.9236 24.978C43.5489 24.978 44.0249 24.7727 44.3516 24.362C44.6876 23.9513 44.8556 23.3493 44.8556 22.556C44.8556 21.772 44.6876 21.1747 44.3516 20.764C44.0156 20.344 43.5396 20.134 42.9236 20.134C42.3076 20.134 41.8316 20.344 41.4956 20.764C41.1596 21.1747 40.9916 21.772 40.9916 22.556C40.9916 23.3493 41.1549 23.9513 41.4816 24.362C41.8176 24.7727 42.2983 24.978 42.9236 24.978ZM55.6979 19C57.2286 19 57.9939 19.9193 57.9939 21.758V26H56.5799V21.814C56.5799 21.2353 56.4773 20.8153 56.2719 20.554C56.0759 20.2833 55.7539 20.148 55.3059 20.148C54.7926 20.148 54.3866 20.3253 54.0879 20.68C53.7893 21.0347 53.6399 21.52 53.6399 22.136V26H52.2259V21.814C52.2259 21.2353 52.1233 20.8153 51.9179 20.554C51.7126 20.2833 51.3906 20.148 50.9519 20.148C50.4293 20.148 50.0186 20.3253 49.7199 20.68C49.4213 21.0347 49.2719 21.52 49.2719 22.136V26H47.8579V19.168H49.2439V20.204C49.4586 19.8213 49.7479 19.5273 50.1119 19.322C50.4759 19.1073 50.8913 19 51.3579 19C52.4126 19 53.0986 19.4387 53.4159 20.316C53.6306 19.9053 53.9386 19.5833 54.3399 19.35C54.7413 19.1167 55.1939 19 55.6979 19ZM65.7822 22.822H60.9522C61.0549 24.2687 61.7735 24.992 63.1082 24.992C63.8922 24.992 64.6015 24.7353 65.2362 24.222L65.6702 25.216C65.3529 25.4867 64.9609 25.7013 64.4942 25.86C64.0275 26.0187 63.5515 26.098 63.0662 26.098C61.9742 26.098 61.1109 25.7853 60.4762 25.16C59.8509 24.5347 59.5382 23.6713 59.5382 22.57C59.5382 21.87 59.6735 21.2493 59.9442 20.708C60.2242 20.1667 60.6115 19.7467 61.1062 19.448C61.6102 19.1493 62.1795 19 62.8142 19C63.7382 19 64.4615 19.2987 64.9842 19.896C65.5162 20.4933 65.7822 21.3193 65.7822 22.374V22.822ZM62.8422 20.036C62.3009 20.036 61.8669 20.2087 61.5402 20.554C61.2229 20.89 61.0315 21.3753 60.9662 22.01H64.5642C64.5362 21.3753 64.3729 20.89 64.0742 20.554C63.7849 20.2087 63.3742 20.036 62.8422 20.036ZM74.0278 26.098C73.3371 26.098 72.7351 25.9533 72.2218 25.664C71.7178 25.3747 71.3258 24.9687 71.0458 24.446C70.7751 23.914 70.6398 23.2933 70.6398 22.584C70.6398 21.8747 70.7798 21.2493 71.0598 20.708C71.3491 20.1667 71.7504 19.7467 72.2638 19.448C72.7864 19.1493 73.3931 19 74.0838 19C74.5598 19 75.0171 19.0793 75.4558 19.238C75.9038 19.3967 76.2678 19.6113 76.5478 19.882L76.1138 20.89C75.4978 20.386 74.8584 20.134 74.1958 20.134C73.5424 20.134 73.0291 20.3487 72.6558 20.778C72.2918 21.198 72.1098 21.7953 72.1098 22.57C72.1098 23.3353 72.2918 23.928 72.6558 24.348C73.0198 24.7587 73.5331 24.964 74.1958 24.964C74.8584 24.964 75.4978 24.712 76.1138 24.208L76.5478 25.23C76.2491 25.5007 75.8758 25.7153 75.4278 25.874C74.9798 26.0233 74.5131 26.098 74.0278 26.098ZM77.7993 26V16.13H79.2133V26H77.7993ZM81.19 26V19.168H82.604V26H81.19ZM81.092 16.116H82.716V17.586H81.092V16.116ZM90.4326 22.822H85.6026C85.7053 24.2687 86.4239 24.992 87.7586 24.992C88.5426 24.992 89.2519 24.7353 89.8866 24.222L90.3206 25.216C90.0033 25.4867 89.6113 25.7013 89.1446 25.86C88.6779 26.0187 88.2019 26.098 87.7166 26.098C86.6246 26.098 85.7613 25.7853 85.1266 25.16C84.5013 24.5347 84.1886 23.6713 84.1886 22.57C84.1886 21.87 84.3239 21.2493 84.5946 20.708C84.8746 20.1667 85.2619 19.7467 85.7566 19.448C86.2606 19.1493 86.8299 19 87.4646 19C88.3886 19 89.1119 19.2987 89.6346 19.896C90.1666 20.4933 90.4326 21.3193 90.4326 22.374V22.822ZM87.4926 20.036C86.9513 20.036 86.5173 20.2087 86.1906 20.554C85.8733 20.89 85.6819 21.3753 85.6166 22.01H89.2146C89.1866 21.3753 89.0233 20.89 88.7246 20.554C88.4353 20.2087 88.0246 20.036 87.4926 20.036ZM95.6727 19C97.3061 19 98.1227 19.9193 98.1227 21.758V26H96.7087V21.828C96.7087 21.2493 96.5921 20.8247 96.3587 20.554C96.1347 20.2833 95.7801 20.148 95.2947 20.148C94.7254 20.148 94.2681 20.3253 93.9227 20.68C93.5774 21.0347 93.4047 21.5107 93.4047 22.108V26H91.9907V19.168H93.3767V20.26C93.6007 19.8493 93.9134 19.5367 94.3147 19.322C94.7161 19.1073 95.1687 19 95.6727 19ZM103.291 25.006C103.506 25.006 103.716 24.992 103.921 24.964L103.851 26.042C103.618 26.0793 103.375 26.098 103.123 26.098C102.236 26.098 101.574 25.8833 101.135 25.454C100.706 25.0153 100.491 24.3853 100.491 23.564V20.26H99.1611V19.168H100.491V17.11H101.905V19.168H103.781V20.26H101.905V23.508C101.905 24.5067 102.367 25.006 103.291 25.006ZM110.845 22.822H106.015C106.117 24.2687 106.836 24.992 108.171 24.992C108.955 24.992 109.664 24.7353 110.299 24.222L110.733 25.216C110.415 25.4867 110.023 25.7013 109.557 25.86C109.09 26.0187 108.614 26.098 108.129 26.098C107.037 26.098 106.173 25.7853 105.539 25.16C104.913 24.5347 104.601 23.6713 104.601 22.57C104.601 21.87 104.736 21.2493 105.007 20.708C105.287 20.1667 105.674 19.7467 106.169 19.448C106.673 19.1493 107.242 19 107.877 19C108.801 19 109.524 19.2987 110.047 19.896C110.579 20.4933 110.845 21.3193 110.845 22.374V22.822ZM107.905 20.036C107.363 20.036 106.929 20.2087 106.603 20.554C106.285 20.89 106.094 21.3753 106.029 22.01H109.627C109.599 21.3753 109.435 20.89 109.137 20.554C108.847 20.2087 108.437 20.036 107.905 20.036ZM112.655 23.228L112.207 16.13H113.957L113.509 23.228H112.655ZM112.249 24.334H113.915V26H112.249V24.334Z" fill="black"/>
<defs>
<clipPath id="clip0_15_459">
<rect width="20.5713" height="24" fill="white" transform="translate(0 2)"/>
</clipPath>
</defs>
</svg>
