<svg width="578" height="231" viewBox="0 0 578 231" fill="none" xmlns="http://www.w3.org/2000/svg">
<path d="M33.484 76.488C30.5507 76.488 27.6173 76.2547 24.684 75.788C21.7507 75.388 18.984 74.7547 16.384 73.888C13.784 72.9547 11.4507 71.8213 9.38401 70.488C8.18401 69.688 7.35068 68.7213 6.88401 67.588C6.41734 66.4547 6.25068 65.3547 6.38401 64.288C6.58401 63.1547 7.01734 62.188 7.68401 61.388C8.41734 60.5213 9.31734 59.988 10.384 59.788C11.4507 59.588 12.6173 59.888 13.884 60.688C16.8173 62.4213 19.9173 63.688 23.184 64.488C26.4507 65.288 29.884 65.688 33.484 65.688C38.7507 65.688 42.584 64.8213 44.984 63.088C47.384 61.288 48.584 58.988 48.584 56.188C48.584 53.8547 47.7173 52.0213 45.984 50.688C44.3173 49.3547 41.4173 48.2547 37.284 47.388L26.284 45.088C19.9507 43.7547 15.2173 41.5213 12.084 38.388C9.01734 35.188 7.48401 30.988 7.48401 25.788C7.48401 22.5213 8.15068 19.5547 9.48401 16.888C10.8173 14.2213 12.684 11.9213 15.084 9.988C17.5507 8.05467 20.4507 6.588 23.784 5.588C27.184 4.52134 30.9173 3.988 34.984 3.988C38.984 3.988 42.784 4.488 46.384 5.488C49.984 6.488 53.2173 7.95467 56.084 9.888C57.1507 10.6213 57.8507 11.5213 58.184 12.588C58.584 13.6547 58.684 14.7213 58.484 15.788C58.284 16.788 57.8173 17.6547 57.084 18.388C56.3507 19.1213 55.4173 19.5547 54.284 19.688C53.2173 19.8213 51.984 19.488 50.584 18.688C48.1173 17.288 45.6173 16.288 43.084 15.688C40.5507 15.088 37.8173 14.788 34.884 14.788C31.8173 14.788 29.184 15.2213 26.984 16.088C24.784 16.9547 23.084 18.188 21.884 19.788C20.7507 21.3213 20.184 23.1547 20.184 25.288C20.184 27.688 20.984 29.6213 22.584 31.088C24.184 32.488 26.9173 33.588 30.784 34.388L41.684 36.688C48.284 38.088 53.184 40.288 56.384 43.288C59.6507 46.288 61.284 50.288 61.284 55.288C61.284 58.488 60.6173 61.388 59.284 63.988C58.0173 66.588 56.1507 68.8213 53.684 70.688C51.284 72.5547 48.384 73.988 44.984 74.988C41.584 75.988 37.7507 76.488 33.484 76.488ZM101.57 76.488C96.7033 76.488 92.4033 75.8547 88.6699 74.588C85.0033 73.3213 81.9033 71.4547 79.3699 68.988C76.8366 66.4547 74.9366 63.3213 73.6699 59.588C72.4033 55.8547 71.7699 51.5213 71.7699 46.588V10.688C71.7699 8.488 72.3033 6.85467 73.3699 5.788C74.5033 4.72134 76.1033 4.188 78.1699 4.188C80.2366 4.188 81.8033 4.72134 82.8699 5.788C84.0033 6.85467 84.5699 8.488 84.5699 10.688V46.488C84.5699 52.8213 86.0033 57.588 88.8699 60.788C91.8033 63.9213 96.0366 65.488 101.57 65.488C107.103 65.488 111.303 63.9213 114.17 60.788C117.037 57.588 118.47 52.8213 118.47 46.488V10.688C118.47 8.488 119.003 6.85467 120.07 5.788C121.203 4.72134 122.803 4.188 124.87 4.188C126.87 4.188 128.403 4.72134 129.47 5.788C130.603 6.85467 131.17 8.488 131.17 10.688V46.588C131.17 53.1213 130.037 58.6213 127.77 63.088C125.57 67.5547 122.27 70.9213 117.87 73.188C113.47 75.388 108.037 76.488 101.57 76.488ZM152.498 76.288C150.431 76.288 148.831 75.7213 147.698 74.588C146.631 73.388 146.098 71.7547 146.098 69.688V11.488C146.098 9.35467 146.665 7.75467 147.798 6.688C148.931 5.55467 150.531 4.988 152.598 4.988H176.698C184.431 4.988 190.398 6.92134 194.598 10.788C198.798 14.6547 200.898 20.0547 200.898 26.988C200.898 33.9213 198.798 39.3547 194.598 43.288C190.398 47.1547 184.431 49.088 176.698 49.088H158.898V69.688C158.898 71.7547 158.365 73.388 157.298 74.588C156.231 75.7213 154.631 76.288 152.498 76.288ZM158.898 38.988H174.698C179.231 38.988 182.665 37.988 184.998 35.988C187.331 33.9213 188.498 30.9213 188.498 26.988C188.498 23.0547 187.331 20.088 184.998 18.088C182.665 16.088 179.231 15.088 174.698 15.088H158.898V38.988ZM218.132 75.488C215.932 75.488 214.232 74.9213 213.032 73.788C211.899 72.588 211.332 70.888 211.332 68.688V11.788C211.332 9.588 211.899 7.92134 213.032 6.788C214.232 5.588 215.932 4.988 218.132 4.988H253.832C255.499 4.988 256.766 5.42134 257.632 6.288C258.566 7.15467 259.032 8.388 259.032 9.988C259.032 11.6547 258.566 12.9547 257.632 13.888C256.766 14.7547 255.499 15.188 253.832 15.188H223.632V34.588H251.632C253.366 34.588 254.666 35.0213 255.532 35.888C256.399 36.7547 256.832 38.0213 256.832 39.688C256.832 41.3547 256.399 42.6213 255.532 43.488C254.666 44.3547 253.366 44.788 251.632 44.788H223.632V65.288H253.832C255.499 65.288 256.766 65.7213 257.632 66.588C258.566 67.4547 259.032 68.7213 259.032 70.388C259.032 72.0547 258.566 73.3213 257.632 74.188C256.766 75.0547 255.499 75.488 253.832 75.488H218.132ZM277.4 76.288C275.334 76.288 273.734 75.7213 272.6 74.588C271.534 73.388 271 71.7547 271 69.688V11.488C271 9.35467 271.567 7.75467 272.7 6.688C273.834 5.55467 275.434 4.988 277.5 4.988H301.6C309.334 4.988 315.3 6.85467 319.5 10.588C323.7 14.2547 325.8 19.4213 325.8 26.088C325.8 30.4213 324.834 34.1547 322.9 37.288C321.034 40.4213 318.3 42.8213 314.7 44.488C311.1 46.1547 306.734 46.988 301.6 46.988L302.5 45.488H305.8C308.534 45.488 310.9 46.1547 312.9 47.488C314.967 48.8213 316.767 50.9213 318.3 53.788L325.8 67.688C326.6 69.088 326.967 70.4547 326.9 71.788C326.834 73.1213 326.334 74.2213 325.4 75.088C324.467 75.888 323.1 76.288 321.3 76.288C319.5 76.288 318.034 75.9213 316.9 75.188C315.767 74.388 314.767 73.188 313.9 71.588L303.8 52.988C302.6 50.7213 301.167 49.2213 299.5 48.488C297.9 47.688 295.834 47.288 293.3 47.288H283.8V69.688C283.8 71.7547 283.267 73.388 282.2 74.588C281.134 75.7213 279.534 76.288 277.4 76.288ZM283.8 37.788H299.4C304 37.788 307.467 36.8547 309.8 34.988C312.2 33.0547 313.4 30.188 313.4 26.388C313.4 22.6547 312.2 19.8547 309.8 17.988C307.467 16.0547 304 15.088 299.4 15.088H283.8V37.788ZM363.055 76.288C359.855 76.288 356.755 76.0213 353.755 75.488C350.755 74.9547 347.955 74.1547 345.355 73.088C342.822 71.9547 340.522 70.588 338.455 68.988C337.788 68.5213 337.322 67.988 337.055 67.388C336.855 66.7213 336.822 66.1213 336.955 65.588C337.155 64.988 337.455 64.488 337.855 64.088C338.322 63.688 338.855 63.488 339.455 63.488C340.055 63.4213 340.688 63.6213 341.355 64.088C344.422 66.3547 347.655 68.0213 351.055 69.088C354.522 70.1547 358.522 70.688 363.055 70.688C369.388 70.688 374.122 69.4547 377.255 66.988C380.455 64.5213 382.055 61.288 382.055 57.288C382.055 53.9547 380.888 51.3547 378.555 49.488C376.288 47.6213 372.522 46.1547 367.255 45.088L357.155 42.988C350.822 41.7213 346.122 39.588 343.055 36.588C339.988 33.588 338.455 29.588 338.455 24.588C338.455 21.5213 339.055 18.7547 340.255 16.288C341.455 13.7547 343.155 11.588 345.355 9.78801C347.555 7.98801 350.155 6.62134 353.155 5.68801C356.222 4.688 359.588 4.188 363.255 4.188C367.588 4.188 371.555 4.788 375.155 5.988C378.822 7.188 382.155 9.088 385.155 11.688C385.755 12.1547 386.155 12.7213 386.355 13.388C386.555 13.988 386.555 14.588 386.355 15.188C386.155 15.7213 385.855 16.1547 385.455 16.488C385.055 16.8213 384.555 17.0213 383.955 17.088C383.355 17.088 382.722 16.8213 382.055 16.288C379.255 14.0213 376.322 12.388 373.255 11.388C370.255 10.3213 366.922 9.78801 363.255 9.78801C359.522 9.78801 356.255 10.388 353.455 11.588C350.722 12.788 348.588 14.488 347.055 16.688C345.522 18.888 344.755 21.488 344.755 24.488C344.755 27.9547 345.822 30.7213 347.955 32.788C350.088 34.8547 353.522 36.3547 358.255 37.288L368.455 39.388C375.188 40.788 380.188 42.888 383.455 45.688C386.722 48.4213 388.355 52.188 388.355 56.988C388.355 59.8547 387.755 62.488 386.555 64.888C385.422 67.2213 383.755 69.2547 381.555 70.988C379.355 72.7213 376.688 74.0547 373.555 74.988C370.488 75.8547 366.988 76.288 363.055 76.288ZM399.297 76.088C398.431 76.088 397.731 75.888 397.197 75.488C396.731 75.1547 396.464 74.6547 396.397 73.988C396.397 73.3213 396.564 72.588 396.897 71.788L424.997 7.188C425.464 6.188 426.031 5.488 426.697 5.088C427.364 4.62134 428.031 4.388 428.697 4.388C429.497 4.388 430.197 4.62134 430.797 5.088C431.464 5.488 431.997 6.188 432.397 7.188L460.497 71.788C460.897 72.588 461.064 73.3213 460.997 73.988C460.997 74.6547 460.764 75.1547 460.297 75.488C459.897 75.888 459.264 76.088 458.397 76.088C457.464 76.088 456.697 75.8547 456.097 75.388C455.564 74.8547 455.097 74.1547 454.697 73.288L446.997 55.188L450.297 56.688H406.997L410.397 55.188L402.697 73.288C402.297 74.288 401.797 75.0213 401.197 75.488C400.664 75.888 400.031 76.088 399.297 76.088ZM428.597 12.588L411.597 52.588L409.297 51.388H447.997L445.897 52.588L428.797 12.588H428.597ZM477.065 75.488C476.132 75.488 475.365 75.2213 474.765 74.688C474.232 74.088 473.965 73.288 473.965 72.288V7.688C473.965 6.62134 474.232 5.82134 474.765 5.288C475.299 4.75467 476.032 4.488 476.965 4.488C477.965 4.488 478.732 4.75467 479.265 5.288C479.799 5.82134 480.065 6.62134 480.065 7.688V69.988H514.465C515.465 69.988 516.199 70.2213 516.665 70.688C517.199 71.1547 517.465 71.8213 517.465 72.688C517.465 73.6213 517.199 74.3213 516.665 74.788C516.199 75.2547 515.465 75.488 514.465 75.488H477.065ZM530.881 75.488C529.814 75.488 528.981 75.188 528.381 74.588C527.781 73.988 527.481 73.1213 527.481 71.988V8.488C527.481 7.35467 527.781 6.488 528.381 5.888C528.981 5.288 529.814 4.988 530.881 4.988H568.681C569.614 4.988 570.314 5.22134 570.781 5.68801C571.248 6.15467 571.481 6.788 571.481 7.588C571.481 8.52134 571.248 9.22134 570.781 9.688C570.314 10.088 569.614 10.288 568.681 10.288H533.481V37.088H566.681C567.614 37.088 568.314 37.3213 568.781 37.788C569.248 38.188 569.481 38.8213 569.481 39.688C569.481 40.5547 569.248 41.2213 568.781 41.688C568.314 42.1547 567.614 42.388 566.681 42.388H533.481V70.188H568.681C569.614 70.188 570.314 70.4213 570.781 70.888C571.248 71.288 571.481 71.9213 571.481 72.788C571.481 73.6547 571.248 74.3213 570.781 74.788C570.314 75.2547 569.614 75.488 568.681 75.488H530.881Z" fill="black"/>
<path d="M2.50901 147.688C1.99234 147.688 1.59234 147.546 1.30901 147.263C1.04234 146.963 0.909009 146.555 0.909009 146.038V131.313C0.909009 130.78 1.04234 130.371 1.30901 130.088C1.59234 129.805 1.99234 129.663 2.50901 129.663C3.02568 129.663 3.41734 129.805 3.68401 130.088C3.96734 130.371 4.10901 130.78 4.10901 131.313V146.038C4.10901 146.555 3.97568 146.963 3.70901 147.263C3.44234 147.546 3.04234 147.688 2.50901 147.688ZM21.3147 147.688C20.798 147.688 20.398 147.546 20.1147 147.263C19.848 146.963 19.7147 146.555 19.7147 146.038V132.538H14.8397C14.4063 132.538 14.0647 132.421 13.8147 132.188C13.5813 131.938 13.4647 131.605 13.4647 131.188C13.4647 130.755 13.5813 130.43 13.8147 130.213C14.0647 129.98 14.4063 129.863 14.8397 129.863H27.7897C28.223 129.863 28.5563 129.98 28.7897 130.213C29.0397 130.43 29.1647 130.755 29.1647 131.188C29.1647 131.605 29.0397 131.938 28.7897 132.188C28.5563 132.421 28.223 132.538 27.7897 132.538H22.9147V146.038C22.9147 146.555 22.7813 146.963 22.5147 147.263C22.248 147.546 21.848 147.688 21.3147 147.688ZM40.192 147.488C39.642 147.488 39.217 147.346 38.917 147.063C38.6337 146.763 38.492 146.338 38.492 145.788V131.563C38.492 131.013 38.6337 130.596 38.917 130.313C39.217 130.013 39.642 129.863 40.192 129.863H49.117C49.5337 129.863 49.8504 129.971 50.067 130.188C50.3004 130.405 50.417 130.713 50.417 131.113C50.417 131.53 50.3004 131.855 50.067 132.088C49.8504 132.305 49.5337 132.413 49.117 132.413H41.567V137.263H48.567C49.0004 137.263 49.3254 137.371 49.542 137.588C49.7587 137.805 49.867 138.121 49.867 138.538C49.867 138.955 49.7587 139.271 49.542 139.488C49.3254 139.705 49.0004 139.813 48.567 139.813H41.567V144.938H49.117C49.5337 144.938 49.8504 145.046 50.067 145.263C50.3004 145.48 50.417 145.796 50.417 146.213C50.417 146.63 50.3004 146.946 50.067 147.163C49.8504 147.38 49.5337 147.488 49.117 147.488H40.192ZM62.409 147.688C61.9257 147.688 61.5507 147.555 61.284 147.288C61.034 147.021 60.909 146.638 60.909 146.138V131.263C60.909 130.746 61.034 130.355 61.284 130.088C61.5507 129.805 61.8923 129.663 62.309 129.663C62.6923 129.663 62.9757 129.738 63.159 129.888C63.359 130.021 63.5923 130.255 63.859 130.588L73.434 143.013H72.784V131.188C72.784 130.705 72.909 130.33 73.159 130.063C73.4257 129.796 73.8007 129.663 74.284 129.663C74.7673 129.663 75.134 129.796 75.384 130.063C75.634 130.33 75.759 130.705 75.759 131.188V146.188C75.759 146.655 75.6423 147.021 75.409 147.288C75.1757 147.555 74.859 147.688 74.459 147.688C74.0757 147.688 73.7673 147.613 73.534 147.463C73.3173 147.313 73.0757 147.071 72.809 146.738L63.259 134.313H63.884V146.138C63.884 146.638 63.759 147.021 63.509 147.288C63.259 147.555 62.8923 147.688 62.409 147.688ZM93.1852 147.738C92.4518 147.738 91.7185 147.68 90.9852 147.563C90.2518 147.463 89.5602 147.305 88.9102 147.088C88.2602 146.855 87.6768 146.571 87.1602 146.238C86.8602 146.038 86.6518 145.796 86.5352 145.513C86.4185 145.23 86.3768 144.955 86.4102 144.688C86.4602 144.405 86.5685 144.163 86.7352 143.963C86.9185 143.746 87.1435 143.613 87.4102 143.563C87.6768 143.513 87.9685 143.588 88.2852 143.788C89.0185 144.221 89.7935 144.538 90.6102 144.738C91.4268 144.938 92.2852 145.038 93.1852 145.038C94.5018 145.038 95.4602 144.821 96.0602 144.388C96.6602 143.938 96.9602 143.363 96.9602 142.663C96.9602 142.08 96.7435 141.621 96.3102 141.288C95.8935 140.955 95.1685 140.68 94.1352 140.463L91.3852 139.888C89.8018 139.555 88.6185 138.996 87.8352 138.213C87.0685 137.413 86.6852 136.363 86.6852 135.063C86.6852 134.246 86.8518 133.505 87.1852 132.838C87.5185 132.171 87.9852 131.596 88.5852 131.113C89.2018 130.63 89.9268 130.263 90.7602 130.013C91.6102 129.746 92.5435 129.613 93.5602 129.613C94.5602 129.613 95.5102 129.738 96.4102 129.988C97.3102 130.238 98.1185 130.605 98.8352 131.088C99.1018 131.271 99.2768 131.496 99.3602 131.763C99.4602 132.03 99.4852 132.296 99.4352 132.563C99.3852 132.813 99.2685 133.03 99.0852 133.213C98.9018 133.396 98.6685 133.505 98.3852 133.538C98.1185 133.571 97.8102 133.488 97.4602 133.288C96.8435 132.938 96.2185 132.688 95.5852 132.538C94.9518 132.388 94.2685 132.313 93.5352 132.313C92.7685 132.313 92.1102 132.421 91.5602 132.638C91.0102 132.855 90.5852 133.163 90.2852 133.563C90.0018 133.946 89.8602 134.405 89.8602 134.938C89.8602 135.538 90.0602 136.021 90.4602 136.388C90.8602 136.738 91.5435 137.013 92.5102 137.213L95.2352 137.788C96.8852 138.138 98.1102 138.688 98.9102 139.438C99.7268 140.188 100.135 141.188 100.135 142.438C100.135 143.238 99.9685 143.963 99.6352 144.613C99.3185 145.263 98.8518 145.821 98.2352 146.288C97.6352 146.755 96.9102 147.113 96.0602 147.363C95.2102 147.613 94.2518 147.738 93.1852 147.738ZM130.744 147.738C130.01 147.738 129.277 147.68 128.544 147.563C127.81 147.463 127.119 147.305 126.469 147.088C125.819 146.855 125.235 146.571 124.719 146.238C124.419 146.038 124.21 145.796 124.094 145.513C123.977 145.23 123.935 144.955 123.969 144.688C124.019 144.405 124.127 144.163 124.294 143.963C124.477 143.746 124.702 143.613 124.969 143.563C125.235 143.513 125.527 143.588 125.844 143.788C126.577 144.221 127.352 144.538 128.169 144.738C128.985 144.938 129.844 145.038 130.744 145.038C132.06 145.038 133.019 144.821 133.619 144.388C134.219 143.938 134.519 143.363 134.519 142.663C134.519 142.08 134.302 141.621 133.869 141.288C133.452 140.955 132.727 140.68 131.694 140.463L128.944 139.888C127.36 139.555 126.177 138.996 125.394 138.213C124.627 137.413 124.244 136.363 124.244 135.063C124.244 134.246 124.41 133.505 124.744 132.838C125.077 132.171 125.544 131.596 126.144 131.113C126.76 130.63 127.485 130.263 128.319 130.013C129.169 129.746 130.102 129.613 131.119 129.613C132.119 129.613 133.069 129.738 133.969 129.988C134.869 130.238 135.677 130.605 136.394 131.088C136.66 131.271 136.835 131.496 136.919 131.763C137.019 132.03 137.044 132.296 136.994 132.563C136.944 132.813 136.827 133.03 136.644 133.213C136.46 133.396 136.227 133.505 135.944 133.538C135.677 133.571 135.369 133.488 135.019 133.288C134.402 132.938 133.777 132.688 133.144 132.538C132.51 132.388 131.827 132.313 131.094 132.313C130.327 132.313 129.669 132.421 129.119 132.638C128.569 132.855 128.144 133.163 127.844 133.563C127.56 133.946 127.419 134.405 127.419 134.938C127.419 135.538 127.619 136.021 128.019 136.388C128.419 136.738 129.102 137.013 130.069 137.213L132.794 137.788C134.444 138.138 135.669 138.688 136.469 139.438C137.285 140.188 137.694 141.188 137.694 142.438C137.694 143.238 137.527 143.963 137.194 144.613C136.877 145.263 136.41 145.821 135.794 146.288C135.194 146.755 134.469 147.113 133.619 147.363C132.769 147.613 131.81 147.738 130.744 147.738ZM149.64 147.488C149.09 147.488 148.665 147.346 148.365 147.063C148.082 146.763 147.94 146.338 147.94 145.788V131.563C147.94 131.013 148.082 130.596 148.365 130.313C148.665 130.013 149.09 129.863 149.64 129.863H158.565C158.982 129.863 159.299 129.971 159.515 130.188C159.749 130.405 159.865 130.713 159.865 131.113C159.865 131.53 159.749 131.855 159.515 132.088C159.299 132.305 158.982 132.413 158.565 132.413H151.015V137.263H158.015C158.449 137.263 158.774 137.371 158.99 137.588C159.207 137.805 159.315 138.121 159.315 138.538C159.315 138.955 159.207 139.271 158.99 139.488C158.774 139.705 158.449 139.813 158.015 139.813H151.015V144.938H158.565C158.982 144.938 159.299 145.046 159.515 145.263C159.749 145.48 159.865 145.796 159.865 146.213C159.865 146.63 159.749 146.946 159.515 147.163C159.299 147.38 158.982 147.488 158.565 147.488H149.64ZM171.982 147.488C171.466 147.488 171.066 147.346 170.782 147.063C170.499 146.763 170.357 146.355 170.357 145.838V131.413C170.357 130.88 170.491 130.48 170.757 130.213C171.041 129.93 171.441 129.788 171.957 129.788C172.474 129.788 172.866 129.93 173.132 130.213C173.416 130.48 173.557 130.88 173.557 131.413V144.763H180.807C181.257 144.763 181.599 144.88 181.832 145.113C182.082 145.346 182.207 145.68 182.207 146.113C182.207 146.546 182.082 146.888 181.832 147.138C181.599 147.371 181.257 147.488 180.807 147.488H171.982ZM193.595 147.488C193.045 147.488 192.62 147.346 192.32 147.063C192.037 146.763 191.895 146.338 191.895 145.788V131.563C191.895 131.013 192.037 130.596 192.32 130.313C192.62 130.013 193.045 129.863 193.595 129.863H202.52C202.937 129.863 203.254 129.971 203.47 130.188C203.704 130.405 203.82 130.713 203.82 131.113C203.82 131.53 203.704 131.855 203.47 132.088C203.254 132.305 202.937 132.413 202.52 132.413H194.97V137.263H201.97C202.404 137.263 202.729 137.371 202.945 137.588C203.162 137.805 203.27 138.121 203.27 138.538C203.27 138.955 203.162 139.271 202.945 139.488C202.729 139.705 202.404 139.813 201.97 139.813H194.97V144.938H202.52C202.937 144.938 203.254 145.046 203.47 145.263C203.704 145.48 203.82 145.796 203.82 146.213C203.82 146.63 203.704 146.946 203.47 147.163C203.254 147.38 202.937 147.488 202.52 147.488H193.595ZM222.488 147.738C220.655 147.738 219.08 147.371 217.763 146.638C216.463 145.888 215.463 144.838 214.763 143.488C214.063 142.121 213.713 140.513 213.713 138.663C213.713 137.28 213.913 136.038 214.313 134.938C214.713 133.821 215.288 132.871 216.038 132.088C216.788 131.288 217.705 130.68 218.788 130.263C219.888 129.83 221.121 129.613 222.488 129.613C223.405 129.613 224.305 129.73 225.188 129.963C226.071 130.196 226.846 130.53 227.513 130.963C227.863 131.18 228.096 131.446 228.213 131.763C228.33 132.063 228.355 132.363 228.288 132.663C228.221 132.946 228.08 133.188 227.863 133.388C227.663 133.588 227.405 133.705 227.088 133.738C226.788 133.755 226.455 133.646 226.088 133.413C225.571 133.08 225.013 132.838 224.413 132.688C223.813 132.538 223.205 132.463 222.588 132.463C221.405 132.463 220.405 132.705 219.588 133.188C218.771 133.671 218.155 134.371 217.738 135.288C217.321 136.205 217.113 137.33 217.113 138.663C217.113 139.98 217.321 141.105 217.738 142.038C218.155 142.971 218.771 143.68 219.588 144.163C220.405 144.646 221.405 144.888 222.588 144.888C223.221 144.888 223.846 144.813 224.463 144.663C225.08 144.496 225.663 144.246 226.213 143.913C226.58 143.696 226.905 143.605 227.188 143.638C227.488 143.655 227.738 143.755 227.938 143.938C228.138 144.121 228.271 144.355 228.338 144.638C228.405 144.905 228.388 145.188 228.288 145.488C228.188 145.771 227.988 146.021 227.688 146.238C227.021 146.721 226.221 147.096 225.288 147.363C224.371 147.613 223.438 147.738 222.488 147.738ZM240.38 147.688C239.863 147.688 239.463 147.546 239.18 147.263C238.913 146.963 238.78 146.555 238.78 146.038V131.313C238.78 130.78 238.913 130.371 239.18 130.088C239.463 129.805 239.863 129.663 240.38 129.663C240.897 129.663 241.288 129.805 241.555 130.088C241.838 130.371 241.98 130.78 241.98 131.313V146.038C241.98 146.555 241.847 146.963 241.58 147.263C241.313 147.546 240.913 147.688 240.38 147.688ZM261.236 147.738C259.536 147.738 258.044 147.363 256.761 146.613C255.494 145.863 254.511 144.813 253.811 143.463C253.111 142.096 252.761 140.496 252.761 138.663C252.761 137.28 252.961 136.038 253.361 134.938C253.761 133.821 254.327 132.871 255.061 132.088C255.811 131.288 256.702 130.68 257.736 130.263C258.786 129.83 259.952 129.613 261.236 129.613C262.952 129.613 264.444 129.988 265.711 130.738C266.977 131.471 267.961 132.513 268.661 133.863C269.361 135.213 269.711 136.805 269.711 138.638C269.711 140.021 269.511 141.271 269.111 142.388C268.711 143.505 268.136 144.463 267.386 145.263C266.652 146.063 265.761 146.68 264.711 147.113C263.677 147.53 262.519 147.738 261.236 147.738ZM261.236 144.988C262.319 144.988 263.236 144.738 263.986 144.238C264.752 143.738 265.336 143.013 265.736 142.063C266.152 141.113 266.361 139.98 266.361 138.663C266.361 136.663 265.911 135.113 265.011 134.013C264.127 132.913 262.869 132.363 261.236 132.363C260.169 132.363 259.252 132.613 258.486 133.113C257.719 133.596 257.127 134.313 256.711 135.263C256.311 136.196 256.111 137.33 256.111 138.663C256.111 140.646 256.561 142.196 257.461 143.313C258.361 144.43 259.619 144.988 261.236 144.988ZM281.965 147.688C281.481 147.688 281.106 147.555 280.84 147.288C280.59 147.021 280.465 146.638 280.465 146.138V131.263C280.465 130.746 280.59 130.355 280.84 130.088C281.106 129.805 281.448 129.663 281.865 129.663C282.248 129.663 282.531 129.738 282.715 129.888C282.915 130.021 283.148 130.255 283.415 130.588L292.99 143.013H292.34V131.188C292.34 130.705 292.465 130.33 292.715 130.063C292.981 129.796 293.356 129.663 293.84 129.663C294.323 129.663 294.69 129.796 294.94 130.063C295.19 130.33 295.315 130.705 295.315 131.188V146.188C295.315 146.655 295.198 147.021 294.965 147.288C294.731 147.555 294.415 147.688 294.015 147.688C293.631 147.688 293.323 147.613 293.09 147.463C292.873 147.313 292.631 147.071 292.365 146.738L282.815 134.313H283.44V146.138C283.44 146.638 283.315 147.021 283.065 147.288C282.815 147.555 282.448 147.688 281.965 147.688ZM306.841 147.688C306.441 147.688 306.116 147.596 305.866 147.413C305.633 147.23 305.491 146.988 305.441 146.688C305.391 146.371 305.449 146.021 305.616 145.638L312.216 131.013C312.433 130.53 312.691 130.188 312.991 129.988C313.308 129.771 313.666 129.663 314.066 129.663C314.449 129.663 314.791 129.771 315.091 129.988C315.408 130.188 315.674 130.53 315.891 131.013L322.516 145.638C322.699 146.021 322.766 146.371 322.716 146.688C322.666 147.005 322.524 147.255 322.291 147.438C322.058 147.605 321.749 147.688 321.366 147.688C320.899 147.688 320.533 147.58 320.266 147.363C320.016 147.13 319.791 146.78 319.591 146.313L317.966 142.538L319.316 143.413H308.766L310.116 142.538L308.516 146.313C308.299 146.796 308.074 147.146 307.841 147.363C307.608 147.58 307.274 147.688 306.841 147.688ZM314.016 133.338L310.516 141.663L309.866 140.863H318.216L317.591 141.663L314.066 133.338H314.016ZM334.469 147.488C333.919 147.488 333.494 147.346 333.194 147.063C332.911 146.763 332.769 146.338 332.769 145.788V131.563C332.769 131.013 332.911 130.596 333.194 130.313C333.494 130.013 333.919 129.863 334.469 129.863H339.319C342.269 129.863 344.544 130.621 346.144 132.138C347.761 133.655 348.569 135.83 348.569 138.663C348.569 140.08 348.361 141.338 347.944 142.438C347.544 143.521 346.944 144.438 346.144 145.188C345.361 145.938 344.394 146.513 343.244 146.913C342.111 147.296 340.803 147.488 339.319 147.488H334.469ZM335.969 144.838H339.119C340.153 144.838 341.044 144.713 341.794 144.463C342.561 144.196 343.194 143.813 343.694 143.313C344.211 142.796 344.594 142.155 344.844 141.388C345.094 140.605 345.219 139.696 345.219 138.663C345.219 136.596 344.711 135.055 343.694 134.038C342.678 133.021 341.153 132.513 339.119 132.513H335.969V144.838ZM367.212 147.738C365.512 147.738 364.021 147.363 362.737 146.613C361.471 145.863 360.487 144.813 359.787 143.463C359.087 142.096 358.737 140.496 358.737 138.663C358.737 137.28 358.937 136.038 359.337 134.938C359.737 133.821 360.304 132.871 361.037 132.088C361.787 131.288 362.679 130.68 363.712 130.263C364.762 129.83 365.929 129.613 367.212 129.613C368.929 129.613 370.421 129.988 371.687 130.738C372.954 131.471 373.937 132.513 374.637 133.863C375.337 135.213 375.687 136.805 375.687 138.638C375.687 140.021 375.487 141.271 375.087 142.388C374.687 143.505 374.112 144.463 373.362 145.263C372.629 146.063 371.737 146.68 370.687 147.113C369.654 147.53 368.496 147.738 367.212 147.738ZM367.212 144.988C368.296 144.988 369.212 144.738 369.962 144.238C370.729 143.738 371.312 143.013 371.712 142.063C372.129 141.113 372.337 139.98 372.337 138.663C372.337 136.663 371.887 135.113 370.987 134.013C370.104 132.913 368.846 132.363 367.212 132.363C366.146 132.363 365.229 132.613 364.462 133.113C363.696 133.596 363.104 134.313 362.687 135.263C362.287 136.196 362.087 137.33 362.087 138.663C362.087 140.646 362.537 142.196 363.437 143.313C364.337 144.43 365.596 144.988 367.212 144.988ZM392.516 147.738C391.783 147.738 391.05 147.68 390.316 147.563C389.583 147.463 388.891 147.305 388.241 147.088C387.591 146.855 387.008 146.571 386.491 146.238C386.191 146.038 385.983 145.796 385.866 145.513C385.75 145.23 385.708 144.955 385.741 144.688C385.791 144.405 385.9 144.163 386.066 143.963C386.25 143.746 386.475 143.613 386.741 143.563C387.008 143.513 387.3 143.588 387.616 143.788C388.35 144.221 389.125 144.538 389.941 144.738C390.758 144.938 391.616 145.038 392.516 145.038C393.833 145.038 394.791 144.821 395.391 144.388C395.991 143.938 396.291 143.363 396.291 142.663C396.291 142.08 396.075 141.621 395.641 141.288C395.225 140.955 394.5 140.68 393.466 140.463L390.716 139.888C389.133 139.555 387.95 138.996 387.166 138.213C386.4 137.413 386.016 136.363 386.016 135.063C386.016 134.246 386.183 133.505 386.516 132.838C386.85 132.171 387.316 131.596 387.916 131.113C388.533 130.63 389.258 130.263 390.091 130.013C390.941 129.746 391.875 129.613 392.891 129.613C393.891 129.613 394.841 129.738 395.741 129.988C396.641 130.238 397.45 130.605 398.166 131.088C398.433 131.271 398.608 131.496 398.691 131.763C398.791 132.03 398.816 132.296 398.766 132.563C398.716 132.813 398.6 133.03 398.416 133.213C398.233 133.396 398 133.505 397.716 133.538C397.45 133.571 397.141 133.488 396.791 133.288C396.175 132.938 395.55 132.688 394.916 132.538C394.283 132.388 393.6 132.313 392.866 132.313C392.1 132.313 391.441 132.421 390.891 132.638C390.341 132.855 389.916 133.163 389.616 133.563C389.333 133.946 389.191 134.405 389.191 134.938C389.191 135.538 389.391 136.021 389.791 136.388C390.191 136.738 390.875 137.013 391.841 137.213L394.566 137.788C396.216 138.138 397.441 138.688 398.241 139.438C399.058 140.188 399.466 141.188 399.466 142.438C399.466 143.238 399.3 143.963 398.966 144.613C398.65 145.263 398.183 145.821 397.566 146.288C396.966 146.755 396.241 147.113 395.391 147.363C394.541 147.613 393.583 147.738 392.516 147.738ZM432.2 147.738C430.366 147.738 428.791 147.371 427.475 146.638C426.175 145.888 425.175 144.838 424.475 143.488C423.775 142.121 423.425 140.513 423.425 138.663C423.425 137.28 423.625 136.038 424.025 134.938C424.425 133.821 425 132.871 425.75 132.088C426.5 131.288 427.416 130.68 428.5 130.263C429.6 129.83 430.833 129.613 432.2 129.613C433.116 129.613 434.016 129.73 434.9 129.963C435.783 130.196 436.558 130.53 437.225 130.963C437.575 131.18 437.808 131.446 437.925 131.763C438.041 132.063 438.066 132.363 438 132.663C437.933 132.946 437.791 133.188 437.575 133.388C437.375 133.588 437.116 133.705 436.8 133.738C436.5 133.755 436.166 133.646 435.8 133.413C435.283 133.08 434.725 132.838 434.125 132.688C433.525 132.538 432.916 132.463 432.3 132.463C431.116 132.463 430.116 132.705 429.3 133.188C428.483 133.671 427.866 134.371 427.45 135.288C427.033 136.205 426.825 137.33 426.825 138.663C426.825 139.98 427.033 141.105 427.45 142.038C427.866 142.971 428.483 143.68 429.3 144.163C430.116 144.646 431.116 144.888 432.3 144.888C432.933 144.888 433.558 144.813 434.175 144.663C434.791 144.496 435.375 144.246 435.925 143.913C436.291 143.696 436.616 143.605 436.9 143.638C437.2 143.655 437.45 143.755 437.65 143.938C437.85 144.121 437.983 144.355 438.05 144.638C438.116 144.905 438.1 145.188 438 145.488C437.9 145.771 437.7 146.021 437.4 146.238C436.733 146.721 435.933 147.096 435 147.363C434.083 147.613 433.15 147.738 432.2 147.738ZM455.83 147.738C454.13 147.738 452.639 147.363 451.355 146.613C450.089 145.863 449.105 144.813 448.405 143.463C447.705 142.096 447.355 140.496 447.355 138.663C447.355 137.28 447.555 136.038 447.955 134.938C448.355 133.821 448.922 132.871 449.655 132.088C450.405 131.288 451.297 130.68 452.33 130.263C453.38 129.83 454.547 129.613 455.83 129.613C457.547 129.613 459.039 129.988 460.305 130.738C461.572 131.471 462.555 132.513 463.255 133.863C463.955 135.213 464.305 136.805 464.305 138.638C464.305 140.021 464.105 141.271 463.705 142.388C463.305 143.505 462.73 144.463 461.98 145.263C461.247 146.063 460.355 146.68 459.305 147.113C458.272 147.53 457.114 147.738 455.83 147.738ZM455.83 144.988C456.914 144.988 457.83 144.738 458.58 144.238C459.347 143.738 459.93 143.013 460.33 142.063C460.747 141.113 460.955 139.98 460.955 138.663C460.955 136.663 460.505 135.113 459.605 134.013C458.722 132.913 457.464 132.363 455.83 132.363C454.764 132.363 453.847 132.613 453.08 133.113C452.314 133.596 451.722 134.313 451.305 135.263C450.905 136.196 450.705 137.33 450.705 138.663C450.705 140.646 451.155 142.196 452.055 143.313C452.955 144.43 454.214 144.988 455.83 144.988ZM476.559 147.688C476.093 147.688 475.734 147.555 475.484 147.288C475.234 147.021 475.109 146.655 475.109 146.188V131.163C475.109 130.68 475.243 130.313 475.509 130.063C475.776 129.796 476.143 129.663 476.609 129.663C477.026 129.663 477.351 129.746 477.584 129.913C477.834 130.063 478.059 130.33 478.259 130.713L484.434 142.138H483.634L489.809 130.713C490.009 130.33 490.226 130.063 490.459 129.913C490.693 129.746 491.018 129.663 491.434 129.663C491.901 129.663 492.259 129.796 492.509 130.063C492.759 130.313 492.884 130.68 492.884 131.163V146.188C492.884 146.655 492.759 147.021 492.509 147.288C492.276 147.555 491.918 147.688 491.434 147.688C490.968 147.688 490.609 147.555 490.359 147.288C490.109 147.021 489.984 146.655 489.984 146.188V134.613H490.534L485.284 144.188C485.118 144.471 484.943 144.68 484.759 144.813C484.576 144.946 484.326 145.013 484.009 145.013C483.693 145.013 483.434 144.946 483.234 144.813C483.034 144.663 482.859 144.455 482.709 144.188L477.409 134.588H478.009V146.188C478.009 146.655 477.884 147.021 477.634 147.288C477.401 147.555 477.043 147.688 476.559 147.688ZM518.726 147.688C518.326 147.688 518.001 147.596 517.751 147.413C517.517 147.23 517.376 146.988 517.326 146.688C517.276 146.371 517.334 146.021 517.501 145.638L524.101 131.013C524.317 130.53 524.576 130.188 524.876 129.988C525.192 129.771 525.551 129.663 525.951 129.663C526.334 129.663 526.676 129.771 526.976 129.988C527.292 130.188 527.559 130.53 527.776 131.013L534.401 145.638C534.584 146.021 534.651 146.371 534.601 146.688C534.551 147.005 534.409 147.255 534.176 147.438C533.942 147.605 533.634 147.688 533.251 147.688C532.784 147.688 532.417 147.58 532.151 147.363C531.901 147.13 531.676 146.78 531.476 146.313L529.851 142.538L531.201 143.413H520.651L522.001 142.538L520.401 146.313C520.184 146.796 519.959 147.146 519.726 147.363C519.492 147.58 519.159 147.688 518.726 147.688ZM525.901 133.338L522.401 141.663L521.751 140.863H530.101L529.476 141.663L525.951 133.338H525.901ZM548.551 147.688C548.034 147.688 547.634 147.546 547.351 147.263C547.084 146.963 546.951 146.555 546.951 146.038V132.538H542.076C541.643 132.538 541.301 132.421 541.051 132.188C540.818 131.938 540.701 131.605 540.701 131.188C540.701 130.755 540.818 130.43 541.051 130.213C541.301 129.98 541.643 129.863 542.076 129.863H555.026C555.459 129.863 555.793 129.98 556.026 130.213C556.276 130.43 556.401 130.755 556.401 131.188C556.401 131.605 556.276 131.938 556.026 132.188C555.793 132.421 555.459 132.538 555.026 132.538H550.151V146.038C550.151 146.555 550.018 146.963 549.751 147.263C549.484 147.546 549.084 147.688 548.551 147.688ZM567.428 147.488C566.878 147.488 566.453 147.346 566.153 147.063C565.87 146.763 565.728 146.338 565.728 145.788V131.563C565.728 131.013 565.87 130.596 566.153 130.313C566.453 130.013 566.878 129.863 567.428 129.863H576.353C576.77 129.863 577.087 129.971 577.303 130.188C577.537 130.405 577.653 130.713 577.653 131.113C577.653 131.53 577.537 131.855 577.303 132.088C577.087 132.305 576.77 132.413 576.353 132.413H568.803V137.263H575.803C576.237 137.263 576.562 137.371 576.778 137.588C576.995 137.805 577.103 138.121 577.103 138.538C577.103 138.955 576.995 139.271 576.778 139.488C576.562 139.705 576.237 139.813 575.803 139.813H568.803V144.938H576.353C576.77 144.938 577.087 145.046 577.303 145.263C577.537 145.48 577.653 145.796 577.653 146.213C577.653 146.63 577.537 146.946 577.303 147.163C577.087 147.38 576.77 147.488 576.353 147.488H567.428ZM573.278 128.213C573.078 128.43 572.853 128.546 572.603 128.563C572.37 128.563 572.153 128.496 571.953 128.363C571.77 128.213 571.645 128.03 571.578 127.813C571.528 127.596 571.578 127.371 571.728 127.138L573.678 124.263C573.862 123.98 574.078 123.813 574.328 123.763C574.595 123.696 574.853 123.713 575.103 123.813C575.353 123.896 575.553 124.038 575.703 124.238C575.87 124.421 575.962 124.638 575.978 124.888C575.995 125.121 575.895 125.355 575.678 125.588L573.278 128.213Z" fill="#005CFF"/>
<path d="M185.344 230.088C183.224 230.088 181.064 229.808 178.864 229.248C176.664 228.688 174.644 227.828 172.804 226.668C172.044 226.188 171.524 225.628 171.244 224.988C171.004 224.308 170.944 223.648 171.064 223.008C171.224 222.328 171.524 221.768 171.964 221.328C172.444 220.848 173.004 220.568 173.644 220.488C174.324 220.408 175.064 220.588 175.864 221.028C177.344 221.868 178.844 222.508 180.364 222.948C181.884 223.388 183.504 223.608 185.224 223.608C186.904 223.608 188.344 223.308 189.544 222.708C190.744 222.108 191.664 221.268 192.304 220.188C192.944 219.108 193.264 217.848 193.264 216.408C193.264 214.168 192.584 212.368 191.224 211.008C189.864 209.608 188.004 208.908 185.644 208.908C184.364 208.908 183.124 209.128 181.924 209.568C180.724 209.968 179.544 210.688 178.384 211.728C178.024 212.048 177.564 212.368 177.004 212.688C176.444 212.968 175.844 213.108 175.204 213.108C174.204 213.108 173.444 212.848 172.924 212.328C172.404 211.808 172.144 211.088 172.144 210.168V190.548C172.144 189.468 172.424 188.648 172.984 188.088C173.584 187.488 174.424 187.188 175.504 187.188H195.244C196.324 187.188 197.144 187.468 197.704 188.028C198.304 188.548 198.604 189.328 198.604 190.368C198.604 191.368 198.304 192.148 197.704 192.708C197.144 193.268 196.324 193.548 195.244 193.548H179.644V206.988H177.664C178.704 205.588 180.084 204.508 181.804 203.748C183.524 202.988 185.404 202.608 187.444 202.608C190.124 202.608 192.444 203.188 194.404 204.348C196.404 205.468 197.944 207.048 199.024 209.088C200.144 211.088 200.704 213.428 200.704 216.108C200.704 218.868 200.084 221.308 198.844 223.428C197.604 225.508 195.824 227.148 193.504 228.348C191.224 229.508 188.504 230.088 185.344 230.088ZM220.961 230.088C215.961 230.088 212.141 228.208 209.501 224.448C206.861 220.648 205.541 215.248 205.541 208.248C205.541 203.528 206.121 199.568 207.281 196.368C208.481 193.128 210.221 190.688 212.501 189.048C214.821 187.408 217.641 186.588 220.961 186.588C226.001 186.588 229.821 188.428 232.421 192.108C235.061 195.788 236.381 201.148 236.381 208.188C236.381 212.868 235.781 216.848 234.581 220.128C233.421 223.368 231.701 225.848 229.421 227.568C227.141 229.248 224.321 230.088 220.961 230.088ZM220.961 223.788C223.681 223.788 225.681 222.528 226.961 220.008C228.281 217.488 228.941 213.548 228.941 208.188C228.941 202.828 228.281 198.948 226.961 196.548C225.681 194.108 223.681 192.888 220.961 192.888C218.281 192.888 216.281 194.108 214.961 196.548C213.641 198.948 212.981 202.828 212.981 208.188C212.981 213.548 213.641 217.488 214.961 220.008C216.281 222.528 218.281 223.788 220.961 223.788ZM258.677 229.008C258.277 229.728 257.777 230.188 257.177 230.388C256.617 230.628 256.037 230.668 255.437 230.508C254.877 230.388 254.397 230.108 253.997 229.668C253.597 229.268 253.357 228.768 253.277 228.168C253.197 227.528 253.357 226.848 253.757 226.128L275.897 187.728C276.297 187.008 276.777 186.528 277.337 186.288C277.937 186.048 278.517 186.008 279.077 186.168C279.637 186.288 280.117 186.568 280.517 187.008C280.917 187.448 281.157 187.988 281.237 188.628C281.357 189.228 281.217 189.868 280.817 190.548L258.677 229.008ZM252.257 212.448C248.897 212.448 246.277 211.288 244.397 208.968C242.517 206.648 241.577 203.488 241.577 199.488C241.577 196.808 241.997 194.508 242.837 192.588C243.677 190.668 244.897 189.188 246.497 188.148C248.097 187.108 250.017 186.588 252.257 186.588C255.617 186.588 258.237 187.748 260.117 190.068C261.997 192.348 262.937 195.488 262.937 199.488C262.937 202.168 262.517 204.488 261.677 206.448C260.837 208.368 259.617 209.848 258.017 210.888C256.417 211.928 254.497 212.448 252.257 212.448ZM252.257 207.408C253.217 207.408 254.037 207.128 254.717 206.568C255.397 205.968 255.917 205.088 256.277 203.928C256.637 202.768 256.817 201.288 256.817 199.488C256.817 196.808 256.417 194.828 255.617 193.548C254.817 192.268 253.697 191.628 252.257 191.628C251.297 191.628 250.477 191.908 249.797 192.468C249.117 193.028 248.597 193.888 248.237 195.048C247.877 196.208 247.697 197.688 247.697 199.488C247.697 202.208 248.097 204.208 248.897 205.488C249.697 206.768 250.817 207.408 252.257 207.408ZM282.377 230.088C279.017 230.088 276.397 228.928 274.517 226.608C272.637 224.288 271.697 221.128 271.697 217.128C271.697 214.448 272.117 212.148 272.957 210.228C273.797 208.308 275.017 206.828 276.617 205.788C278.217 204.748 280.137 204.228 282.377 204.228C285.737 204.228 288.357 205.388 290.237 207.708C292.117 209.988 293.057 213.128 293.057 217.128C293.057 219.808 292.637 222.128 291.797 224.088C290.957 226.008 289.737 227.488 288.137 228.528C286.537 229.568 284.617 230.088 282.377 230.088ZM282.377 225.048C283.337 225.048 284.157 224.768 284.837 224.208C285.517 223.648 286.037 222.788 286.397 221.628C286.757 220.428 286.937 218.928 286.937 217.128C286.937 214.448 286.537 212.468 285.737 211.188C284.937 209.908 283.817 209.268 282.377 209.268C281.417 209.268 280.597 209.548 279.917 210.108C279.237 210.668 278.717 211.528 278.357 212.688C277.997 213.848 277.817 215.328 277.817 217.128C277.817 219.848 278.217 221.848 279.017 223.128C279.817 224.408 280.937 225.048 282.377 225.048ZM319.236 230.088C315.156 230.088 311.576 229.188 308.496 227.388C305.456 225.588 303.096 223.068 301.416 219.828C299.736 216.548 298.896 212.708 298.896 208.308C298.896 204.988 299.376 202.008 300.336 199.368C301.296 196.688 302.656 194.408 304.416 192.528C306.216 190.608 308.356 189.148 310.836 188.148C313.356 187.108 316.156 186.588 319.236 186.588C323.356 186.588 326.936 187.488 329.976 189.288C333.016 191.048 335.376 193.548 337.056 196.788C338.736 200.028 339.576 203.848 339.576 208.248C339.576 211.568 339.096 214.568 338.136 217.248C337.176 219.928 335.796 222.228 333.996 224.148C332.236 226.068 330.096 227.548 327.576 228.588C325.096 229.588 322.316 230.088 319.236 230.088ZM319.236 223.488C321.836 223.488 324.036 222.888 325.836 221.688C327.676 220.488 329.076 218.748 330.036 216.468C331.036 214.188 331.536 211.468 331.536 208.308C331.536 203.508 330.456 199.788 328.296 197.148C326.176 194.508 323.156 193.188 319.236 193.188C316.676 193.188 314.476 193.788 312.636 194.988C310.796 196.148 309.376 197.868 308.376 200.148C307.416 202.388 306.936 205.108 306.936 208.308C306.936 213.068 308.016 216.788 310.176 219.468C312.336 222.148 315.356 223.488 319.236 223.488ZM351.345 229.968C350.105 229.968 349.125 229.628 348.405 228.948C347.725 228.228 347.385 227.208 347.385 225.888V191.268C347.385 189.948 347.725 188.948 348.405 188.268C349.125 187.548 350.145 187.188 351.465 187.188H372.405C373.445 187.188 374.225 187.448 374.745 187.968C375.265 188.488 375.525 189.228 375.525 190.188C375.525 191.188 375.265 191.968 374.745 192.528C374.225 193.048 373.445 193.308 372.405 193.308H355.065V205.248H371.145C372.145 205.248 372.905 205.508 373.425 206.028C373.985 206.548 374.265 207.288 374.265 208.248C374.265 209.248 373.985 210.028 373.425 210.588C372.905 211.108 372.145 211.368 371.145 211.368H355.065V225.888C355.065 228.608 353.825 229.968 351.345 229.968ZM385.037 229.968C383.797 229.968 382.817 229.628 382.097 228.948C381.417 228.228 381.077 227.208 381.077 225.888V191.268C381.077 189.948 381.417 188.948 382.097 188.268C382.817 187.548 383.837 187.188 385.157 187.188H406.097C407.137 187.188 407.917 187.448 408.437 187.968C408.957 188.488 409.217 189.228 409.217 190.188C409.217 191.188 408.957 191.968 408.437 192.528C407.917 193.048 407.137 193.308 406.097 193.308H388.757V205.248H404.837C405.837 205.248 406.597 205.508 407.117 206.028C407.677 206.548 407.957 207.288 407.957 208.248C407.957 209.248 407.677 210.028 407.117 210.588C406.597 211.108 405.837 211.368 404.837 211.368H388.757V225.888C388.757 228.608 387.517 229.968 385.037 229.968Z" fill="#005CFF"/>
</svg>
