<svg width="21" height="22" viewBox="0 0 21 22" fill="none" xmlns="http://www.w3.org/2000/svg">
<ellipse cx="10.5" cy="10.6521" rx="10.5" ry="10.4997" fill="#005CFF"/>
<path d="M8.596 14.1524C8.34 14.1524 8.152 14.0964 8.032 13.9844C7.92 13.8644 7.864 13.6924 7.864 13.4684C7.864 13.3324 7.9 13.2004 7.972 13.0724C8.044 12.9444 8.148 12.8084 8.284 12.6644L10.696 10.0964C11.064 9.71238 11.328 9.36438 11.488 9.05238C11.648 8.73238 11.728 8.41238 11.728 8.09238C11.728 7.69238 11.6 7.38838 11.344 7.18038C11.096 6.97238 10.732 6.86838 10.252 6.86838C9.98 6.86838 9.708 6.90838 9.436 6.98838C9.164 7.06038 8.888 7.18838 8.608 7.37238C8.464 7.46838 8.328 7.50838 8.2 7.49238C8.08 7.47638 7.972 7.42438 7.876 7.33638C7.788 7.24838 7.728 7.14038 7.696 7.01238C7.664 6.88438 7.668 6.75638 7.708 6.62838C7.756 6.49238 7.852 6.37638 7.996 6.28038C8.34 6.04838 8.724 5.87238 9.148 5.75238C9.58 5.63238 10.012 5.57238 10.444 5.57238C11.052 5.57238 11.564 5.66438 11.98 5.84838C12.396 6.03238 12.712 6.30038 12.928 6.65238C13.144 7.00438 13.252 7.43238 13.252 7.93638C13.252 8.27238 13.196 8.60038 13.084 8.92038C12.98 9.24038 12.816 9.56438 12.592 9.89238C12.376 10.2204 12.092 10.5684 11.74 10.9364L9.484 13.2884V12.8804H13.012C13.228 12.8804 13.392 12.9324 13.504 13.0364C13.616 13.1404 13.672 13.2964 13.672 13.5044C13.672 13.7124 13.616 13.8724 13.504 13.9844C13.392 14.0964 13.228 14.1524 13.012 14.1524H8.596Z" fill="white"/>
</svg>
